{"title":"Jawab 1955 DvDrip 1CD X264 AAC","uid":8323378,"size":857905674,"categoryP":"video","categoryS":"movies","magnet":"?xt=urn:btih:d9ced90fed49515af9c9a8b16bea4126b289dc2c&amp;dn=Jawab+1955+DvDrip+1CD+X264+AAC&amp;tr=udp%3A%2F%2Ftracker.openbittorrent.com%3A80&amp;tr=udp%3A%2F%2Fopen.demonii.com%3A1337&amp;tr=udp%3A%2F%2Ftracker.coppersurfer.tk%3A6969&amp;tr=udp%3A%2F%2Fexodus.desync.com%3A6969","seeders":1,"leechers":0,"uploader":"Bclassics","files":1,"time":1364743030,"description":"\n-: Cover :- \n &lt;a href=&quot;\nhttp://desibbrg.net/imghost/show.php?img=430593_Jawab.jpg.html&quot; rel=&quot;nofollow&quot; target=&quot;_NEW&quot;&gt;\nhttp://desibbrg.net/imghost/show.php?img=430593_Jawab.jpg.html&lt;/a&gt; &lt;a href=&quot;\nhttp://desibbrg.net/imghost/show.php?img=430592_Jawabmovieposter.jpg.html&quot; rel=&quot;nofollow&quot; target=&quot;_NEW&quot;&gt;\nhttp://desibbrg.net/imghost/show.php?img=430592_Jawabmovieposter.jpg.html&lt;/a&gt;\n\n-: Screens :-\n &lt;a href=&quot;\nhttp://desibbrg.net/imghost/show.php?img=430603_Jawab.1955..DvDrip.1CD.X264.AAC.RRG.DADA.DBBIANS.Com.mkvsnapshot00.04.342013.03.3111.38.24.jpg.html&quot; rel=&quot;nofollow&quot; target=&quot;_NEW&quot;&gt;\nhttp://desibbrg.net/imghost/show.php?img=430603_Jawab.1955..DvDrip.1CD.X264.AAC.RRG.DADA.DBBIANS.Com.mkvsnapshot00.04.342013.03.3111.38.24.jpg.html&lt;/a&gt; &lt;a href=&quot;\nhttp://desibbrg.net/imghost/show.php?img=430602_Jawab.1955..DvDrip.1CD.X264.AAC.RRG.DADA.DBBIANS.Com.mkvsnapshot00.13.052013.03.3111.40.24.jpg.html&quot; rel=&quot;nofollow&quot; target=&quot;_NEW&quot;&gt;\nhttp://desibbrg.net/imghost/show.php?img=430602_Jawab.1955..DvDrip.1CD.X264.AAC.RRG.DADA.DBBIANS.Com.mkvsnapshot00.13.052013.03.3111.40.24.jpg.html&lt;/a&gt; &lt;a href=&quot;\nhttp://desibbrg.net/imghost/show.php?img=430599_Jawab.1955..DvDrip.1CD.X264.AAC.RRG.DADA.DBBIANS.Com.mkvsnapshot00.41.142013.03.3111.47.32.jpg.html&quot; rel=&quot;nofollow&quot; target=&quot;_NEW&quot;&gt;\nhttp://desibbrg.net/imghost/show.php?img=430599_Jawab.1955..DvDrip.1CD.X264.AAC.RRG.DADA.DBBIANS.Com.mkvsnapshot00.41.142013.03.3111.47.32.jpg.html&lt;/a&gt; &lt;a href=&quot;\nhttp://desibbrg.net/imghost/show.php?img=430598_Jawab.1955..DvDrip.1CD.X264.AAC.RRG.DADA.DBBIANS.Com.mkvsnapshot00.50.552013.03.3111.48.01.jpg.html&quot; rel=&quot;nofollow&quot; target=&quot;_NEW&quot;&gt;\nhttp://desibbrg.net/imghost/show.php?img=430598_Jawab.1955..DvDrip.1CD.X264.AAC.RRG.DADA.DBBIANS.Com.mkvsnapshot00.50.552013.03.3111.48.01.jpg.html&lt;/a&gt; &lt;a href=&quot;\nhttp://desibbrg.net/imghost/show.php?img=430596_Jawab.1955..DvDrip.1CD.X264.AAC.RRG.DADA.DBBIANS.Com.mkvsnapshot01.09.102013.03.3111.49.23.jpg.html&quot; rel=&quot;nofollow&quot; target=&quot;_NEW&quot;&gt;\nhttp://desibbrg.net/imghost/show.php?img=430596_Jawab.1955..DvDrip.1CD.X264.AAC.RRG.DADA.DBBIANS.Com.mkvsnapshot01.09.102013.03.3111.49.23.jpg.html&lt;/a&gt; &lt;a href=&quot;\nhttp://desibbrg.net/imghost/show.php?img=430594_Jawab.1955..DvDrip.1CD.X264.AAC.RRG.DADA.DBBIANS.Com.mkvsnapshot01.45.232013.03.3111.52.50.jpg.html&quot; rel=&quot;nofollow&quot; target=&quot;_NEW&quot;&gt;\nhttp://desibbrg.net/imghost/show.php?img=430594_Jawab.1955..DvDrip.1CD.X264.AAC.RRG.DADA.DBBIANS.Com.mkvsnapshot01.45.232013.03.3111.52.50.jpg.html&lt;/a&gt; &lt;a href=&quot;\nhttp://desibbrg.net/imghost/show.php?img=430591_Jawab.1955..DvDrip.1CD.X264.AAC.RRG.DADA.DBBIANS.Com.mkvthumbs2013.03.3111.22.39.jpg.html&quot; rel=&quot;nofollow&quot; target=&quot;_NEW&quot;&gt;\nhttp://desibbrg.net/imghost/show.php?img=430591_Jawab.1955..DvDrip.1CD.X264.AAC.RRG.DADA.DBBIANS.Com.mkvthumbs2013.03.3111.22.39.jpg.html&lt;/a&gt;\n\n\n\n\n\n-: Info :-  \n\nGeneral\n\nFormat                           : MP4 Video\nFile size                        : 818 MiB\nDuration                         : 1h 54mn\nOverall bit rate                 : 999 Kbps\n\nVideo\nFormat                           : AVC\nFormat/Info                      : Advanced Video Codec\nFormat profile                   : &lt;a class=&quot;__cf_email__&quot; href=&quot;/cdn-cgi/l/email-protection&quot; data-cfemail=&quot;7c311d15123c304f524c&quot;&gt;[email&amp;#160;protected]&lt;/a&gt;&lt;script cf-hash='f9e31' type=&quot;text/javascript&quot;&gt;\n/* &lt;![CDATA[ */!function(){try{var t=&quot;currentScript&quot;in document?document.currentScript:function(){for(var t=document.getElementsByTagName(&quot;script&quot;),e=t.length;e--;)if(t[e].getAttribute(&quot;cf-hash&quot;))return t[e]}();if(t&amp;&amp;t.previousSibling){var e,r,n,i,c=t.previousSibling,a=c.getAttribute(&quot;data-cfemail&quot;);if(a){for(e=&quot;&quot;,r=parseInt(a.substr(0,2),16),n=2;a.length-n;n+=2)i=parseInt(a.substr(n,2),16)^r,e+=String.fromCharCode(i);e=document.createTextNode(e),c.parentNode.replaceChild(e,c)}}}catch(u){}}();/* ]]&gt; */&lt;/script&gt;\nFormat settings, CABAC           : Yes\nFormat settings, ReFrames        : 3 frames\nMuxing mode                      : Container profile=&lt;a class=&quot;__cf_email__&quot; href=&quot;/cdn-cgi/l/email-protection&quot; data-cfemail=&quot;2f7a4144414058416f1c011f&quot;&gt;[email&amp;#160;protected]&lt;/a&gt;&lt;script cf-hash='f9e31' type=&quot;text/javascript&quot;&gt;\n/* &lt;![CDATA[ */!function(){try{var t=&quot;currentScript&quot;in document?document.currentScript:function(){for(var t=document.getElementsByTagName(&quot;script&quot;),e=t.length;e--;)if(t[e].getAttribute(&quot;cf-hash&quot;))return t[e]}();if(t&amp;&amp;t.previousSibling){var e,r,n,i,c=t.previousSibling,a=c.getAttribute(&quot;data-cfemail&quot;);if(a){for(e=&quot;&quot;,r=parseInt(a.substr(0,2),16),n=2;a.length-n;n+=2)i=parseInt(a.substr(n,2),16)^r,e+=String.fromCharCode(i);e=document.createTextNode(e),c.parentNode.replaceChild(e,c)}}}catch(u){}}();/* ]]&gt; */&lt;/script&gt;\nDuration                         : 1h 54mn\nBit rate                         : 862 Kbps\nWidth                            : 656 pixels\nHeight                           : 480 pixels\nDisplay aspect ratio             : 4:3\nFrame rate mode                  : Constant\nFrame rate                       : 25.000 fps\nColor space                      : YUV\nChroma subsampling               : 4:2:0\nBit depth                        : 8 bits\nScan type                        : Progressive\nBits/(Pixel*Frame)               : 0.109\nStream size                      : 706 MiB (86%)\n\nAudio\nFormat                           : AAC\nFormat/Info                      : Advanced Audio Codec\nFormat version                   : Version 4\nFormat profile                   : LC\nFormat settings, SBR             : No\nDuration                         : 1h 54mn\nBit rate                         : 129 Kbps\nChannel(s)                       : 2 channels\nChannel positions                : Front: L R\nSampling rate                    : 44.1 KHz\nBit depth                        : 16 bits\nStream size                      : 105 MiB (13%)\n\n\n\n &lt;a href=&quot;\nhttp://www.imdb.com/title/tt2162651/&quot; rel=&quot;nofollow&quot; target=&quot;_NEW&quot;&gt;\nhttp://www.imdb.com/title/tt2162651/&lt;/a&gt;\n\n\n\n    Genres:\nComedy, Family, Indian Cinema\n    Language:\nHindi\n    Running time:\n1:54:34\n\n    Released:\nJan 5, 1955\n\nCast &amp; Crew\nCast\n\n    Geeta Bali\n    Nasir Khan\n    Johnny Walker\n    Mukri\n    Master Romi\n    Balraj Sahni\n    Ashraf Khan\n    Arvind Kumar\n    Shamim Choudhary\n\nDirectors\n\n    Ismail Memon\n\n\nAn impoverished father faces challenges and disappointments when he decides to educate his only child \n\n\n","torrent":{"xt":"urn:btih:d9ced90fed49515af9c9a8b16bea4126b289dc2c","amp;dn":"Jawab+1955+DvDrip+1CD+X264+AAC","amp;tr":["udp%3A%2F%2Ftracker.openbittorrent.com%3A80","udp%3A%2F%2Fopen.demonii.com%3A1337","udp%3A%2F%2Ftracker.coppersurfer.tk%3A6969","udp%3A%2F%2Fexodus.desync.com%3A6969"],"infoHash":"d9ced90fed49515af9c9a8b16bea4126b289dc2c","infoHashBuffer":{"type":"Buffer","data":[217,206,217,15,237,73,81,90,249,201,168,177,107,234,65,38,178,137,220,44]},"announce":[],"urlList":[]}}